<svg width="389" height="290" viewBox="0 0 389 290" fill="none" xmlns="http://www.w3.org/2000/svg">
<rect width="389" height="290" fill="#F5F5F5"/>
<rect x="75" y="99" width="242" height="74" rx="9" fill="white"/>
<rect x="77" y="101" width="238" height="69" rx="9" fill="#3145A8"/>
<rect x="94" y="97" width="10" height="5" fill="#3145A8"/>
<rect x="196" y="97" width="103" height="5" fill="#3145A8"/>
<rect x="96" y="79" width="124" height="27" rx="2" fill="#D9D9D9"/>
<path d="M105.641 94.4785V100H102.472V84.8643H105.641V91.7285L112.462 84.8643H116.157L109.69 91.2666L116.684 100H112.945L107.51 93.0498L105.641 94.4785ZM129.478 94.1777C129.478 96.0612 128.955 97.54 127.909 98.6143C126.864 99.6813 125.417 100.215 123.569 100.215C121.757 100.215 120.336 99.6777 119.305 98.6035C118.273 97.5293 117.758 96.054 117.758 94.1777C117.758 92.3086 118.273 90.8405 119.305 89.7734C120.336 88.6992 121.779 88.1621 123.634 88.1621C125.532 88.1621 126.978 88.6813 127.974 89.7197C128.976 90.751 129.478 92.237 129.478 94.1777ZM126.319 94.1777C126.319 92.7956 126.094 91.793 125.643 91.1699C125.191 90.5469 124.536 90.2354 123.677 90.2354C122.76 90.2354 122.073 90.5648 121.614 91.2236C121.156 91.8753 120.927 92.86 120.927 94.1777C120.927 95.474 121.149 96.4622 121.593 97.1426C122.044 97.8158 122.692 98.1523 123.537 98.1523C124.468 98.1523 125.163 97.8229 125.621 97.1641C126.087 96.498 126.319 95.5026 126.319 94.1777ZM134.902 95.6387V100H131.884V84.0586H134.902V93.1895L139.049 88.377H142.293L138.211 92.9102L142.604 100H139.307L136.202 94.7363L134.902 95.6387ZM153.927 96.6055C153.927 97.7298 153.465 98.6143 152.541 99.2588C151.624 99.8962 150.353 100.215 148.728 100.215C147.131 100.215 145.906 99.9642 145.054 99.4629C144.209 98.9544 143.646 98.1667 143.367 97.0996L146.021 96.7021C146.171 97.2536 146.429 97.6439 146.794 97.873C147.166 98.1022 147.811 98.2168 148.728 98.2168C149.573 98.2168 150.188 98.1094 150.575 97.8945C150.962 97.6797 151.155 97.3431 151.155 96.8848C151.155 96.5124 150.998 96.2188 150.683 96.0039C150.375 95.7819 149.848 95.5957 149.104 95.4453C148.538 95.3307 148.029 95.2197 147.578 95.1123C147.134 95.0049 146.751 94.901 146.429 94.8008C146.114 94.6934 145.856 94.5931 145.655 94.5C145.061 94.2064 144.606 93.8304 144.291 93.3721C143.983 92.9137 143.829 92.348 143.829 91.6748C143.829 90.5648 144.255 89.7018 145.107 89.0859C145.967 88.4629 147.181 88.1514 148.749 88.1514C150.131 88.1514 151.241 88.4199 152.079 88.957C152.924 89.4941 153.451 90.2712 153.658 91.2881L150.983 91.5674C150.897 91.0947 150.686 90.7438 150.35 90.5146C150.013 90.2783 149.479 90.1602 148.749 90.1602C148.033 90.1602 147.496 90.2533 147.138 90.4395C146.78 90.6185 146.601 90.9229 146.601 91.3525C146.601 91.6891 146.737 91.9577 147.009 92.1582C147.288 92.3516 147.754 92.5127 148.405 92.6416C149.315 92.8278 150.12 93.0212 150.822 93.2217C151.531 93.415 152.101 93.6478 152.53 93.9199C152.953 94.1921 153.289 94.543 153.54 94.9727C153.798 95.3952 153.927 95.9395 153.927 96.6055ZM159.352 90.6973C159.76 89.8092 160.272 89.1647 160.888 88.7637C161.504 88.3626 162.238 88.1621 163.09 88.1621C164.322 88.1621 165.267 88.5417 165.926 89.3008C166.585 90.0599 166.914 91.1699 166.914 92.6309V100H163.906V93.4902C163.906 92.4661 163.734 91.6999 163.391 91.1914C163.047 90.6829 162.528 90.4287 161.833 90.4287C161.103 90.4287 160.512 90.7438 160.061 91.374C159.617 91.9971 159.395 92.7992 159.395 93.7803V100H156.376V84.0586H159.395V88.4092C159.395 88.667 159.391 88.9248 159.384 89.1826C159.377 89.4404 159.366 89.6947 159.352 89.9453C159.344 90.196 159.33 90.4466 159.309 90.6973H159.352ZM172.317 94.7686C172.317 95.9001 172.525 96.7559 172.94 97.3359C173.363 97.9089 173.961 98.1953 174.734 98.1953C175.264 98.1953 175.698 98.0807 176.034 97.8516C176.378 97.6152 176.618 97.2679 176.754 96.8096L179.601 97.0566C178.777 99.1621 177.105 100.215 174.584 100.215C172.837 100.215 171.494 99.6992 170.556 98.668C169.618 97.6296 169.148 96.1185 169.148 94.1348C169.148 92.2155 169.625 90.7402 170.577 89.709C171.53 88.6777 172.88 88.1621 174.627 88.1621C176.296 88.1621 177.57 88.7171 178.451 89.8271C179.332 90.93 179.772 92.5485 179.772 94.6826V94.7686H172.317ZM176.851 92.8779C176.793 91.9398 176.568 91.238 176.174 90.7725C175.78 90.2998 175.25 90.0635 174.584 90.0635C173.875 90.0635 173.327 90.3105 172.94 90.8047C172.561 91.2988 172.36 91.9899 172.339 92.8779H176.851ZM187.593 99.8281C186.862 100.072 186.014 100.193 185.047 100.193C184.159 100.193 183.475 99.9535 182.995 99.4736C182.515 98.9867 182.275 98.2526 182.275 97.2715V90.418H180.804V88.377H182.426L183.371 85.6484H185.262V88.377H187.464V90.418H185.262V96.4551C185.262 97.0208 185.369 97.4398 185.584 97.7119C185.799 97.9769 186.132 98.1094 186.583 98.1094C186.798 98.1094 187.134 98.0592 187.593 97.959V99.8281ZM192.083 100.215C190.959 100.215 190.081 99.9105 189.451 99.3018C188.821 98.6859 188.506 97.8229 188.506 96.7129C188.506 95.5098 188.896 94.5967 189.677 93.9736C190.465 93.3506 191.603 93.0247 193.093 92.9961L195.596 92.9531V92.3623C195.596 91.6032 195.463 91.041 195.198 90.6758C194.933 90.3034 194.5 90.1172 193.898 90.1172C193.34 90.1172 192.928 90.2461 192.663 90.5039C192.405 90.7546 192.244 91.1735 192.18 91.7607L189.032 91.6104C189.426 89.3115 191.091 88.1621 194.027 88.1621C195.495 88.1621 196.627 88.5238 197.422 89.2471C198.217 89.9704 198.614 90.998 198.614 92.3301V96.5625C198.614 97.2142 198.686 97.6654 198.829 97.916C198.979 98.1595 199.227 98.2812 199.57 98.2812C199.799 98.2812 200.021 98.2598 200.236 98.2168V99.8496C199.864 99.9427 199.545 100.011 199.28 100.054C199.015 100.104 198.689 100.129 198.303 100.129C197.544 100.129 196.981 99.9427 196.616 99.5703C196.258 99.1979 196.043 98.6501 195.972 97.9268H195.907C195.485 98.6859 194.955 99.2588 194.317 99.6455C193.68 100.025 192.935 100.215 192.083 100.215ZM195.596 94.6182L194.049 94.6396C193.34 94.6755 192.842 94.7507 192.556 94.8652C192.262 94.9941 192.036 95.1875 191.879 95.4453C191.729 95.7031 191.653 96.0469 191.653 96.4766C191.653 97.028 191.779 97.4398 192.029 97.7119C192.287 97.9769 192.627 98.1094 193.05 98.1094C193.522 98.1094 193.956 97.9805 194.35 97.7227C194.736 97.4648 195.041 97.1104 195.263 96.6592C195.485 96.2008 195.596 95.7174 195.596 95.209V94.6182ZM209.034 97.6904C208.633 98.5713 208.121 99.2122 207.498 99.6133C206.882 100.014 206.148 100.215 205.296 100.215C204.064 100.215 203.119 99.8389 202.46 99.0869C201.801 98.3278 201.472 97.2178 201.472 95.7568V88.377H204.49V94.8975C204.49 95.9144 204.662 96.6807 205.006 97.1963C205.35 97.7048 205.865 97.959 206.553 97.959C207.283 97.959 207.87 97.6475 208.314 97.0244C208.766 96.3942 208.991 95.5885 208.991 94.6074V88.377H212.01V97.4004C212.01 97.8945 212.017 98.36 212.031 98.7969C212.046 99.2266 212.067 99.6276 212.096 100H209.217C209.174 99.4844 209.142 99.0332 209.12 98.6465C209.099 98.2598 209.088 97.9411 209.088 97.6904H209.034Z" fill="#3145A8"/>
<path d="M231.764 96.9297C233.508 96.9297 234.716 96.0573 235.387 94.3125L237.896 95.2598C237.356 96.5879 236.562 97.5775 235.514 98.2285C234.472 98.873 233.222 99.1953 231.764 99.1953C230.292 99.1953 229.039 98.9154 228.004 98.3555C226.969 97.7891 226.178 96.972 225.631 95.9043C225.09 94.8366 224.82 93.554 224.82 92.0566C224.82 90.5462 225.081 89.2702 225.602 88.2285C226.122 87.1868 226.891 86.3958 227.906 85.8555C228.922 85.3086 230.165 85.0352 231.637 85.0352C233.251 85.0352 234.566 85.3607 235.582 86.0117C236.598 86.6562 237.311 87.6068 237.721 88.8633L235.182 89.5566C234.967 88.8665 234.544 88.3197 233.912 87.916C233.287 87.5059 232.548 87.3008 231.695 87.3008C230.393 87.3008 229.404 87.7044 228.727 88.5117C228.056 89.319 227.721 90.5007 227.721 92.0566C227.721 93.1113 227.874 94 228.18 94.7227C228.492 95.4453 228.948 95.9954 229.547 96.373C230.152 96.7441 230.891 96.9297 231.764 96.9297ZM249.889 93.707C249.889 95.4193 249.413 96.7637 248.463 97.7402C247.512 98.7103 246.197 99.1953 244.518 99.1953C242.87 99.1953 241.578 98.707 240.641 97.7305C239.703 96.7539 239.234 95.4128 239.234 93.707C239.234 92.0078 239.703 90.6732 240.641 89.7031C241.578 88.7266 242.89 88.2383 244.576 88.2383C246.301 88.2383 247.617 88.7103 248.521 89.6543C249.433 90.5918 249.889 91.9427 249.889 93.707ZM247.018 93.707C247.018 92.4505 246.812 91.5391 246.402 90.9727C245.992 90.4062 245.396 90.123 244.615 90.123C243.782 90.123 243.157 90.4225 242.74 91.0215C242.324 91.6139 242.115 92.5091 242.115 93.707C242.115 94.8854 242.317 95.7839 242.721 96.4023C243.131 97.0143 243.72 97.3203 244.488 97.3203C245.335 97.3203 245.966 97.0208 246.383 96.4219C246.806 95.8164 247.018 94.9115 247.018 93.707ZM254.82 84.5078V99H252.076V84.5078H254.82ZM260.387 84.5078V99H257.643V84.5078H260.387ZM265.475 94.2441C265.475 95.2728 265.663 96.0508 266.041 96.5781C266.425 97.099 266.969 97.3594 267.672 97.3594C268.154 97.3594 268.548 97.2552 268.854 97.0469C269.166 96.832 269.384 96.5163 269.508 96.0996L272.096 96.3242C271.347 98.2383 269.827 99.1953 267.535 99.1953C265.947 99.1953 264.726 98.7266 263.873 97.7891C263.02 96.8451 262.594 95.4714 262.594 93.668C262.594 91.9232 263.027 90.582 263.893 89.6445C264.758 88.707 265.986 88.2383 267.574 88.2383C269.091 88.2383 270.25 88.7428 271.051 89.752C271.852 90.7546 272.252 92.2259 272.252 94.166V94.2441H265.475ZM269.596 92.5254C269.544 91.6725 269.339 91.0345 268.98 90.6113C268.622 90.1816 268.141 89.9668 267.535 89.9668C266.891 89.9668 266.393 90.1914 266.041 90.6406C265.696 91.0898 265.514 91.7181 265.494 92.5254H269.596ZM278.766 103.238C277.477 103.238 276.438 102.991 275.65 102.496C274.869 102.008 274.387 101.308 274.205 100.396L276.949 100.074C277.047 100.497 277.255 100.829 277.574 101.07C277.9 101.311 278.323 101.432 278.844 101.432C279.605 101.432 280.162 101.197 280.514 100.729C280.865 100.26 281.041 99.5632 281.041 98.6387L281.061 97.0371H281.041C280.742 97.6882 280.309 98.1764 279.742 98.502C279.176 98.821 278.476 98.9805 277.643 98.9805C276.412 98.9805 275.458 98.5182 274.781 97.5938C274.104 96.6693 273.766 95.3477 273.766 93.6289C273.766 91.9036 274.114 90.5723 274.811 89.6348C275.507 88.6973 276.52 88.2285 277.848 88.2285C278.616 88.2285 279.264 88.388 279.791 88.707C280.325 89.0195 280.742 89.4948 281.041 90.1328H281.09C281.09 89.9766 281.096 89.7812 281.109 89.5469C281.122 89.3125 281.139 89.0879 281.158 88.873C281.184 88.6582 281.207 88.5117 281.227 88.4336H283.824C283.785 89.1367 283.766 89.9505 283.766 90.875V98.6777C283.766 100.182 283.339 101.318 282.486 102.086C281.633 102.854 280.393 103.238 278.766 103.238ZM281.061 93.5703C281.061 92.4831 280.865 91.6367 280.475 91.0312C280.09 90.4193 279.54 90.1133 278.824 90.1133C278.095 90.1133 277.545 90.4062 277.174 90.9922C276.809 91.5781 276.627 92.457 276.627 93.6289C276.627 94.7747 276.806 95.6374 277.164 96.2168C277.529 96.7897 278.076 97.0762 278.805 97.0762C279.534 97.0762 280.09 96.7734 280.475 96.168C280.865 95.556 281.061 94.6901 281.061 93.5703ZM288.834 94.2441C288.834 95.2728 289.023 96.0508 289.4 96.5781C289.785 97.099 290.328 97.3594 291.031 97.3594C291.513 97.3594 291.907 97.2552 292.213 97.0469C292.525 96.832 292.743 96.5163 292.867 96.0996L295.455 96.3242C294.706 98.2383 293.186 99.1953 290.895 99.1953C289.306 99.1953 288.085 98.7266 287.232 97.7891C286.38 96.8451 285.953 95.4714 285.953 93.668C285.953 91.9232 286.386 90.582 287.252 89.6445C288.118 88.707 289.345 88.2383 290.934 88.2383C292.451 88.2383 293.609 88.7428 294.41 89.752C295.211 90.7546 295.611 92.2259 295.611 94.166V94.2441H288.834ZM292.955 92.5254C292.903 91.6725 292.698 91.0345 292.34 90.6113C291.982 90.1816 291.5 89.9668 290.895 89.9668C290.25 89.9668 289.752 90.1914 289.4 90.6406C289.055 91.0898 288.873 91.7181 288.854 92.5254H292.955Z" fill="#42AE00"/>
<path d="M128.649 145.332L125.292 155H117.37L131.173 117.161H140.519L154.269 155H146.427L143.07 145.332H128.649ZM135.846 122.988C135.667 123.704 135.417 124.564 135.094 125.566C134.772 126.569 134.539 127.276 134.396 127.688L130.421 139.37H141.298L137.216 127.446C136.965 126.712 136.732 125.969 136.518 125.217C136.303 124.465 136.079 123.722 135.846 122.988ZM167.348 140.632V155H159.425V117.161H178.332C182.843 117.161 186.326 118.136 188.778 120.088C191.231 122.021 192.458 124.806 192.458 128.44C192.458 131.09 191.706 133.381 190.202 135.315C188.698 137.231 186.666 138.493 184.105 139.102L194.337 155H185.421L176.64 140.632H167.348ZM184.481 128.762C184.481 126.954 183.9 125.593 182.736 124.68C181.572 123.767 179.826 123.311 177.499 123.311H167.348V134.482H177.714C179.934 134.482 181.617 133.981 182.763 132.979C183.909 131.976 184.481 130.57 184.481 128.762ZM206.208 132.683V155H199.171V117.161H208.222L224.953 146.541C224.63 143.819 224.469 141.357 224.469 139.155V117.161H231.505V155H222.213L205.724 125.862C205.885 127.276 206.002 128.556 206.073 129.702C206.163 130.83 206.208 131.824 206.208 132.683ZM247.887 145.332L244.53 155H236.608L250.412 117.161H259.757L273.507 155H265.666L262.309 145.332H247.887ZM255.084 122.988C254.905 123.704 254.655 124.564 254.333 125.566C254.01 126.569 253.778 127.276 253.634 127.688L249.66 139.37H260.536L256.454 127.446C256.203 126.712 255.971 125.969 255.756 125.217C255.541 124.465 255.317 123.722 255.084 122.988Z" fill="white"/>
</svg>
